#!OML:ASF X:\für Bonn\!DataBase\2005_08_12_Daniel\c3d\Daniel.ASF
:FULLY-SPECIFIED
:DEGREES
91
root -25.7743 17.1673 -0.892057 528.177 93.4438 -1986.75
lowerback 34.1163 -1.85445 1.88215
upperback 8.07235 -1.04704 -2.32077
thorax -8.53366 -0.108527 -3.12404
lowerneck -6.25805 0.833622 -6.37636
upperneck -5.04411 1.60811 -0.490741
head -0.56766 0.973561 0.925487
rclavicle 1.17283e-014 8.34896e-015
rhumerus -29.5069 4.30503 -97.4524
rradius 42.6456
rwrist 5.37614
rhand -28.3766 25.2229
rfingers 7.12502
rthumb -1.74959 -4.7497
lclavicle 1.17283e-014 8.34896e-015
lhumerus -29.7072 -9.80751 91.2066
lradius 48.9714
lwrist 5.4341
lhand -11.6657 -9.12304
lfingers 7.12502
lthumb 14.3791 20.3589
rfemur -26.8388 3.78713 22.3692
rtibia 49.8032
rfoot -9.02538 0.629318
rtoes -1.10993
lfemur -32.0213 -7.77727 -17.2835
ltibia 59.2453
lfoot -9.51641 -1.26077
ltoes -10.6818
92
root -25.5476 16.9217 -0.903086 524.052 93.6192 -1990.21
lowerback 35.0931 -1.933 2.14289
upperback 8.06251 -1.00619 -2.28854
thorax -8.90657 -0.0823847 -3.24193
lowerneck -6.9563 0.878481 -5.87652
upperneck -5.6479 1.69377 -0.870797
head -0.634989 1.03351 0.72363
rclavicle -2.98177e-015 -9.93923e-015
rhumerus -29.6792 1.16889 -95.6333
rradius 38.3841
rwrist 5.98806
rhand -29.1197 24.2484
rfingers 7.12502
rthumb -2.46734 -5.71703
lclavicle -2.98177e-015 -9.93923e-015
lhumerus -31.0531 -6.83699 90.542
lradius 46.2295
lwrist 5.55465
lhand -12.2168 -8.21798
lfingers 7.12502
lthumb 13.8481 21.301
rfemur -27.0488 3.55112 22.7819
rtibia 52.8101
rfoot -11.9509 1.65318
rtoes -1.09551
lfemur -32.7139 -7.91021 -16.9892
ltibia 62.5539
lfoot -11.9491 -2.0654
ltoes -12.112
93
root -25.3227 16.6772 -0.915298 520.129 93.8743 -1993.74
lowerback 35.8273 -1.96588 2.40745
upperback 7.89417 -0.917495 -2.18973
thorax -9.23291 -0.045034 -3.31306
lowerneck -7.64858 0.926843 -5.53461
upperneck -6.22918 1.79078 -1.21483
head -0.698613 1.10139 0.561647
rclavicle -2.34566e-014 -7.95139e-015
rhumerus -29.8641 -2.11507 -93.4144
rradius 33.9556
rwrist 7.29682
rhand -29.6347 22.9454
rfingers 7.12502
rthumb -2.96469 -7.01371
lclavicle -2.34566e-014 -7.95139e-015
lhumerus -32.5281 -4.01971 89.7816
lradius 43.6804
lwrist 5.59423
lhand -12.9884 -7.44603
lfingers 7.12502
lthumb 13.1043 22.1222
rfemur -27.3696 3.31516 23.23
rtibia 55.8126
rfoot -15.1461 2.58667
rtoes -1.58647
lfemur -33.6788 -7.88277 -16.647
ltibia 66.0161
lfoot -14.4072 -2.93355
ltoes -13.3246
94
root -25.0996 16.4409 -0.931542 516.672 94.1477 -1997.24
lowerback 36.1205 -1.9975 2.7619
upperback 7.66258 -0.831484 -2.09626
thorax -9.59304 -0.0274981 -3.43432
lowerneck -8.25789 0.969438 -5.2199
upperneck -6.97999 1.87408 -1.51032
head -0.828915 1.16924 0.418801
rclavicle 2.98177e-015 9.14409e-015
rhumerus -30.0102 -6.07238 -90.7115
rradius 29.2269
rwrist 9.80687
rhand -29.6113 21.4677
rfingers 7.12502
rthumb -2.9421 -8.4917
lclavicle 2.98177e-015 9.14409e-015
lhumerus -34.0864 -1.4025 88.8355
lradius 41.2498
lwrist 5.35905
lhand -13.8056 -6.90866
lfingers 7.12502
lthumb 12.3165 22.7086
rfemur -28.0721 3.08252 23.6775
rtibia 58.7672
rfoot -18.4211 3.30192
rtoes -2.9735
lfemur -35.0838 -7.7857 -16.2906
ltibia 69.5112
lfoot -16.7794 -3.59544
ltoes -14.4658
95
root -24.8762 16.2152 -0.953208 513.349 94.4493 -2000.84
lowerback 36.2529 -2.03909 3.23826
upperback 7.32544 -0.731761 -2.00747
thorax -10.0129 -0.0180062 -3.6317
lowerneck -8.75777 0.988822 -4.96142
upperneck -7.89781 1.92452 -1.70553
head -1.03077 1.22831 0.314824
rclavicle -5.96354e-015 3.22031e-014
rhumerus -30.3697 -11.0702 -87.2261
rradius 24.3527
rwrist 13.921
rhand -28.9746 20.0745
rfingers 7.12502
rthumb -2.3272 -9.89253
lclavicle -5.96354e-015 3.22031e-014
lhumerus -35.7402 1.05387 87.7545
lradius 38.9354
lwrist 4.49636
lhand -14.4948 -6.5017
lfingers 7.12502
lthumb 11.652 23.1543
rfemur -28.9735 2.79797 24.1229
rtibia 61.5884
rfoot -21.5586 3.8505
rtoes -4.70644
lfemur -36.6279 -7.62468 -15.9322
ltibia 72.9166
lfoot -19.0784 -4.08444
ltoes -15.2601
96
root -24.6524 16.0006 -0.976406 510.555 94.7659 -2003.98
lowerback 36.2911 -2.06591 3.68977
upperback 6.96423 -0.621886 -1.87807
thorax -10.4228 -0.00904626 -3.77711
lowerneck -9.11003 1.01308 -4.74922
upperneck -9.00619 1.97507 -1.91404
head -1.31923 1.29723 0.212013
rclavicle 5.1684e-015 1.19271e-014
rhumerus -31.1731 -18.299 -82.1007
rradius 19.1818
rwrist 21.2519
rhand -27.8297 18.993
rfingers 7.12502
rthumb -1.22139 -10.9832
lclavicle 5.1684e-015 1.19271e-014
lhumerus -37.4219 3.12049 86.6842
lradius 36.7492
lwrist 3.21984
lhand -14.8225 -6.1106
lfingers 7.12502
lthumb 11.3359 23.563
rfemur -29.8792 2.57018 24.5383
rtibia 64.2312
rfoot -24.4889 4.19452
rtoes -6.48211
lfemur -38.0188 -7.42716 -15.6287
ltibia 76.1206
lfoot -21.2433 -4.41555
ltoes -14.9875
97
root -24.4275 15.8028 -0.999229 507.948 95.1033 -2006.92
lowerback 36.3223 -2.08307 4.12985
upperback 6.57856 -0.497985 -1.71435
thorax -10.8554 0.0020734 -3.88578
lowerneck -9.29989 1.02329 -4.69642
upperneck -10.2405 2.01574 -2.00304
head -1.68285 1.37147 0.16928
rclavicle 1.2921e-014 -1.03368e-014
rhumerus -33.9428 -29.557 -73.4411
rradius 14.1182
rwrist 34.0436
rhand -26.3325 18.347
rfingers 7.12502
rthumb 0.224635 -11.6326
lclavicle 1.2921e-014 -1.03368e-014
lhumerus -39.1888 4.56743 85.7408
lradius 34.7667
lwrist 1.66935
lhand -14.8129 -5.71088
lfingers 7.12502
lthumb 11.3452 23.9622
rfemur -30.5954 2.38354 24.9325
rtibia 66.6198
rfoot -27.1522 4.53073
rtoes -7.30466
lfemur -39.0501 -7.19877 -15.3721
ltibia 78.9983
lfoot -23.3714 -4.56515
ltoes -14.2689
98
root -24.2015 15.6309 -1.02436 505.773 95.4204 -2009.48
lowerback 36.2661 -2.10683 4.61012
upperback 6.16766 -0.373874 -1.57196
thorax -11.285 0.00719574 -4.03959
lowerneck -9.34354 1.00995 -4.66553
upperneck -11.5328 2.02145 -2.05402
head -2.0977 1.43235 0.138533
rclavicle 1.66979e-014 -1.86858e-014
rhumerus -44.1641 -46.0111 -55.5604
rradius 10.2843
rwrist 55.2244
rhand -24.655 17.7055
rfingers 7.12502
rthumb 1.84478 -12.2662
lclavicle 1.66979e-014 -1.86858e-014
lhumerus -40.9611 5.25365 85.0149
lradius 32.9925
lwrist -0.139809
lhand -14.1783 -5.12868
lfingers 7.12502
lthumb 11.9572 24.5098
rfemur -31.1515 2.24021 25.2372
rtibia 68.6984
rfoot -29.477 4.9345
rtoes -7.61521
lfemur -39.7703 -7.07769 -15.197
ltibia 81.4311
lfoot -25.3375 -4.50887
ltoes -13.1245
99
root -23.9717 15.4894 -1.0484 504.015 95.7207 -2011.67
lowerback 36.0781 -2.11483 5.06685
upperback 5.7555 -0.24585 -1.43393
thorax -11.6666 0.0117625 -4.18781
lowerneck -9.26748 0.985644 -4.68963
upperneck -12.8233 2.01536 -2.03894
head -2.54354 1.48939 0.135242
rclavicle 9.34288e-015 -8.74653e-015
rhumerus -76.7389 -60.3692 -14.0832
rradius 8.36981
rwrist 83.5065
rhand -22.7349 16.296
rfingers 7.12502
rthumb 3.69908 -13.6516
lclavicle 9.34288e-015 -8.74653e-015
lhumerus -42.7321 5.20582 84.5995
lradius 31.5506
lwrist -1.93881
lhand -12.8859 -4.51589
lfingers 7.12502
lthumb 13.2032 25.046
rfemur -31.5392 2.07642 25.4859
rtibia 70.4393
rfoot -31.4466 5.34259
rtoes -7.84376
lfemur -40.2208 -6.9877 -15.088
ltibia 83.3704
lfoot -27.1271 -4.33919
ltoes -12.2192
100
root -23.7379 15.3778 -1.07268 502.402 96.0398 -2013.76
lowerback 35.8281 -2.10772 5.51614
upperback 5.31337 -0.101402 -1.2636
thorax -12.0559 0.0191965 -4.30443
lowerneck -9.23009 0.94817 -4.83101
upperneck -13.9546 2.00998 -1.96106
head -2.94145 1.54544 0.172563
rclavicle -2.18663e-015 2.06736e-014
rhumerus -121.342 -55.5143 39.4349
rradius 9.04838
rwrist 112.447
rhand -20.4656 15.2807
rfingers 7.12502
rthumb 5.89027 -14.6174
lclavicle -2.18663e-015 2.06736e-014
lhumerus -44.4433 4.80848 84.4491
lradius 30.2923
lwrist -3.90795
lhand -10.8921 -4.11005
lfingers 7.12502
lthumb 15.1245 25.3173
rfemur -31.7538 1.96442 25.7157
rtibia 71.8249
rfoot -32.9658 5.807
rtoes -7.65405
lfemur -40.3521 -6.94364 -14.9977
ltibia 84.782
lfoot -28.8035 -4.03997
ltoes -11.7721
101
root -23.5002 15.2972 -1.0966 501.014 96.3013 -2015.64
lowerback 35.5413 -2.11625 5.95157
upperback 4.88051 0.0165763 -1.11052
thorax -12.4228 0.0142592 -4.42171
lowerneck -9.43873 0.896478 -4.97962
upperneck -14.8022 2.00839 -1.85779
head -3.20588 1.59339 0.223969
rclavicle 1.47101e-014 1.59028e-015
rhumerus -142.089 -36.6503 69.9958
rradius 10.9205
rwrist 141.838
rhand -20.3878 15.5086
rfingers 7.12502
rthumb 5.96542 -14.3874
lclavicle 1.47101e-014 1.59028e-015
lhumerus -45.9297 4.36592 84.376
lradius 29.0055
lwrist -6.12526
lhand -8.3834 -4.24435
lfingers 7.12502
lthumb 17.5399 24.9844
rfemur -31.7966 1.78739 25.873
rtibia 72.8768
rfoot -34.0271 6.30986
rtoes -7.37445
lfemur -40.1802 -6.9726 -14.9903
ltibia 85.7031
lfoot -30.3978 -3.62582
ltoes -11.6711
102
root -23.2581 15.2465 -1.11926 499.654 96.5507 -2017.49
lowerback 35.1923 -2.11885 6.37451
upperback 4.4953 0.13106 -0.958401
thorax -12.8266 0.00350988 -4.54823
lowerneck -9.75258 0.866633 -5.0419
upperneck -15.3744 2.03043 -1.80437
head -3.35647 1.63828 0.248214
rclavicle 4.47266e-015 -7.95139e-016
rhumerus -144.097 -29.6266 77.0583
rradius 12.4585
rwrist 153.198
rhand -19.392 14.7005
rfingers 7.12502
rthumb 6.92678 -15.1662
lclavicle 4.47266e-015 -7.95139e-016
lhumerus -47.3089 4.11577 84.1644
lradius 27.5896
lwrist -8.76466
lhand -5.72927 -5.04186
lfingers 7.12502
lthumb 20.0926 23.9392
rfemur -31.6533 1.6155 26.0079
rtibia 73.6089
rfoot -34.7228 6.82146
rtoes -6.99214
lfemur -39.7011 -6.99091 -15.0032
ltibia 86.2023
lfoot -31.9305 -3.1624
ltoes -11.7116
103
root -23.0116 15.2215 -1.14149 498.544 96.7499 -2019.12
lowerback 34.8189 -2.12265 6.75237
upperback 4.04765 0.22916 -0.806513
thorax -13.1775 -0.0123193 -4.63073
lowerneck -10.2865 0.831987 -5.14487
upperneck -15.6685 2.0655 -1.73294
head -3.37251 1.68034 0.290003
rclavicle 4.67144e-015 1.21259e-014
rhumerus -143.377 -27.037 79.6728
rradius 13.4098
rwrist 159.32
rhand -18.609 14.0765
rfingers 7.12502
rthumb 7.68251 -15.7639
lclavicle 4.67144e-015 1.21259e-014
lhumerus -48.5639 4.23909 83.7388
lradius 26.1784
lwrist -11.8166
lhand -3.27891 -6.3677
lfingers 7.12502
lthumb 22.4463 22.348
rfemur -31.4302 1.3727 26.0647
rtibia 74.0627
rfoot -35.0659 7.31997
rtoes -6.70586
lfemur -39.0711 -7.0013 -15.0645
ltibia 86.3705
lfoot -33.4182 -2.6887
ltoes -11.6925
